<svg xmlns="http://www.w3.org/2000/svg" width="18" height="16" viewBox="0 0 18 16">
  <path id="Icon_awesome-bullhorn" data-name="Icon awesome-bullhorn" d="M18,7.5a1.991,1.991,0,0,0-1-1.722V1a1.01,1.01,0,0,0-1-1,1,1,0,0,0-.624.219L12.718,2.345A7.585,7.585,0,0,1,8,4H2A2,2,0,0,0,0,6V9a2,2,0,0,0,2,2H3.053a7.594,7.594,0,0,0-.068,1,7.916,7.916,0,0,0,.8,3.467A.981.981,0,0,0,4.671,16H6.992A.994.994,0,0,0,7.8,14.42,3.98,3.98,0,0,1,6.985,12a3.782,3.782,0,0,1,.138-1H8a7.583,7.583,0,0,1,4.718,1.655l2.657,2.126A1,1,0,0,0,17,14V9.223A1.991,1.991,0,0,0,18,7.5Zm-3,4.419-1.033-.826A9.588,9.588,0,0,0,8,9V6a9.588,9.588,0,0,0,5.967-2.093L15,3.081Z" fill="#de4943"/>
</svg>
