<svg xmlns="http://www.w3.org/2000/svg" width="15" height="12" viewBox="0 0 15 12">
  <path id="Icon_awesome-car-alt" data-name="Icon awesome-car-alt" d="M13.708,6.635l-.351-.878L12.734,4.2A3.483,3.483,0,0,0,9.484,2H5.516a3.483,3.483,0,0,0-3.25,2.2L1.643,5.757l-.351.878A2,2,0,0,0,0,8.5V10a1.984,1.984,0,0,0,.5,1.31V13a1,1,0,0,0,1,1h1a1,1,0,0,0,1-1V12h8v1a1,1,0,0,0,1,1h1a1,1,0,0,0,1-1V11.31A1.982,1.982,0,0,0,15,10V8.5A2,2,0,0,0,13.708,6.635ZM4.123,4.943A1.5,1.5,0,0,1,5.516,4H9.484a1.5,1.5,0,0,1,1.393.943L11.5,6.5h-8ZM2.5,9.994a.943.943,0,0,1-1-1,.943.943,0,0,1,1-1A1.924,1.924,0,0,1,4,9.5c0,.6-.9.5-1.5.5Zm10,0c-.6,0-1.5.1-1.5-.5A1.924,1.924,0,0,1,12.5,8a.943.943,0,0,1,1,1A.943.943,0,0,1,12.5,9.994Z" transform="translate(0 -2)" fill="#de4943"/>
</svg>
