<svg xmlns="http://www.w3.org/2000/svg" width="109.966" height="110" viewBox="0 0 109.966 110">
  <g id="hand" transform="translate(-0.501)">
    <path id="Path_12182" data-name="Path 12182" d="M222.392,333.862a2.149,2.149,0,1,0-3.039,0A2.151,2.151,0,0,0,222.392,333.862Zm0,0" transform="translate(-171.339 -259.254)" fill="#de4943"/>
    <path id="Path_12183" data-name="Path 12183" d="M188.449,23.626A23.626,23.626,0,1,0,212.075,0,23.654,23.654,0,0,0,188.449,23.626Zm42.957,0A19.331,19.331,0,1,1,212.075,4.3,19.353,19.353,0,0,1,231.406,23.626Zm0,0" transform="translate(-147.568)" fill="#de4943"/>
    <path id="Path_12184" data-name="Path 12184" d="M25.241,276.068a2.147,2.147,0,0,0,3.031.018l10.413-10.259a6.491,6.491,0,0,0,1.529-6.665l2.24-2.16a6.405,6.405,0,0,1,4.472-1.807H75.48a19.23,19.23,0,0,0,13.483-5.478c.149-.145-1.134,1.366,19.479-23.27A8.592,8.592,0,0,0,95.369,215.3L82.695,228.322a8.632,8.632,0,0,0-6.678-3.2H52.066a27.71,27.71,0,0,0-10.756-2.148c-10.343,0-19.374,4.777-24.22,13.733a6.416,6.416,0,0,0-5.745,1.78L1.128,248.738a2.148,2.148,0,0,0,0,3.03Zm16.069-48.8a23.447,23.447,0,0,1,9.456,1.968,2.144,2.144,0,0,0,.861.18H76.017a4.3,4.3,0,1,1,0,8.591H58.493a2.148,2.148,0,0,0,0,4.3H76.017a8.578,8.578,0,0,0,8.516-9.714c12.26-12.6,13.989-14.374,14.063-14.462a4.3,4.3,0,1,1,6.559,5.551L85.89,246.713A14.956,14.956,0,0,1,75.48,250.9H46.926a10.679,10.679,0,0,0-7.456,3.011l-1.825,1.762L20.819,238.846c3.933-7.378,11.312-11.574,20.491-11.574ZM14.385,241.526a2.143,2.143,0,0,1,2.66-.3c.372.227-.7-.745,18.6,18.527a2.152,2.152,0,0,1,.012,3.027l-8.877,8.746-21.1-21.265Zm0,0" transform="translate(0 -166.703)" fill="#de4943"/>
    <path id="Path_12185" data-name="Path 12185" d="M270.22,42.137v2.517a6.443,6.443,0,0,0,2.148,12.518,2.148,2.148,0,0,1,0,4.3,3.885,3.885,0,0,1-2.789-1.625,2.148,2.148,0,1,0-3.288,2.764,8.909,8.909,0,0,0,3.929,2.8V67.91a2.148,2.148,0,1,0,4.3,0V65.394a6.443,6.443,0,0,0-2.148-12.518,2.148,2.148,0,0,1,0-4.3,3.449,3.449,0,0,1,2.323,1.123,2.148,2.148,0,1,0,2.988-3.087,8.3,8.3,0,0,0-3.163-1.977v-2.5a2.148,2.148,0,1,0-4.3,0Zm0,0" transform="translate(-208.291 -31.397)" fill="#de4943"/>
  </g>
</svg>
