<svg xmlns="http://www.w3.org/2000/svg" width="281.614" height="13.994" viewBox="0 0 281.614 13.994">
  <path id="Path_15761" data-name="Path 15761" d="M4.124-19.743v4.029L8.96-19.336a2.812,2.812,0,0,0,.44-.407h3.973a.622.622,0,0,1-.126.138q-.079.065-.157.124L7.249-15.292a.2.2,0,0,0-.094.16.2.2,0,0,0,.094.16l6.266,4.7q.11.087.212.175a2.335,2.335,0,0,1,.2.189H9.683a3.259,3.259,0,0,0-.471-.407L4.124-14.259v4.35H1.25v-9.834Zm23.65,0V-9.91H24.915v-3.8H18.587v3.8H15.729v-9.834h2.858v3.564h6.329v-3.564ZM35.563-9.91a6.547,6.547,0,0,1-2.481-.429,5.328,5.328,0,0,1-1.79-1.171,4.828,4.828,0,0,1-1.005-1.5,4.571,4.571,0,0,1-.361-1.818,4.507,4.507,0,0,1,.455-2.007,4.983,4.983,0,0,1,1.256-1.615,5.158,5.158,0,0,1,1.672-.953,6.75,6.75,0,0,1,2.253-.342h2.23a6.75,6.75,0,0,1,2.253.342,5.158,5.158,0,0,1,1.672.953,4.983,4.983,0,0,1,1.256,1.615,4.507,4.507,0,0,1,.455,2.007,4.571,4.571,0,0,1-.361,1.818,4.828,4.828,0,0,1-1.005,1.5,5.328,5.328,0,0,1-1.79,1.171,6.547,6.547,0,0,1-2.481.429Zm0-7.23a3.476,3.476,0,0,0-1.193.175,2.723,2.723,0,0,0-.817.465,2.4,2.4,0,0,0-.573.756,2.1,2.1,0,0,0-.212.931,2.124,2.124,0,0,0,.173.851,2.182,2.182,0,0,0,.487.706,2.463,2.463,0,0,0,.864.553,3.49,3.49,0,0,0,1.272.2h2.23a3.49,3.49,0,0,0,1.272-.2,2.463,2.463,0,0,0,.864-.553,2.182,2.182,0,0,0,.487-.706,2.124,2.124,0,0,0,.173-.851,2.1,2.1,0,0,0-.212-.931A2.4,2.4,0,0,0,39.8-16.5a2.723,2.723,0,0,0-.817-.465,3.476,3.476,0,0,0-1.193-.175ZM37.855-23.7l2.732,3.317H38.2L36.693-22.3l-1.508,1.92h-2.4L35.531-23.7Zm20.9,11.885a2.494,2.494,0,0,1-.165.953,1.823,1.823,0,0,1-.44.655,1.767,1.767,0,0,1-.636.378,2.311,2.311,0,0,1-.754.124,3.528,3.528,0,0,1-1.186-.182,2.2,2.2,0,0,1-.887-.589l-5.826-6.241a.357.357,0,0,0-.251-.131.268.268,0,0,0-.188.073.264.264,0,0,0-.079.2V-9.91h-2.8v-7.753a2.778,2.778,0,0,1,.181-1.062,1.818,1.818,0,0,1,.51-.713,2.033,2.033,0,0,1,.785-.4,3.766,3.766,0,0,1,.989-.124,3.281,3.281,0,0,1,1.272.218,3.047,3.047,0,0,1,1.021.756l5.182,5.746a.306.306,0,0,0,.126.095.429.429,0,0,0,.141.022q.22,0,.22-.262v-6.357h2.78ZM66.514-9.91a6.547,6.547,0,0,1-2.481-.429,5.328,5.328,0,0,1-1.79-1.171,4.828,4.828,0,0,1-1.005-1.5,4.571,4.571,0,0,1-.361-1.818,4.507,4.507,0,0,1,.455-2.007,4.983,4.983,0,0,1,1.256-1.615,5.159,5.159,0,0,1,1.672-.953,6.75,6.75,0,0,1,2.253-.342h5.732v2.6H66.514a3.476,3.476,0,0,0-1.193.175,2.723,2.723,0,0,0-.817.465,2.4,2.4,0,0,0-.573.756,2.1,2.1,0,0,0-.212.931,2.124,2.124,0,0,0,.173.851,2.182,2.182,0,0,0,.487.706,2.73,2.73,0,0,0,.864.575,3.187,3.187,0,0,0,1.272.225h2.717a.18.18,0,0,0,.2-.2v-2.633h2.827v4.757q0,.626-.675.626ZM94.86-11.815a2.494,2.494,0,0,1-.165.953,1.823,1.823,0,0,1-.44.655,1.767,1.767,0,0,1-.636.378,2.311,2.311,0,0,1-.754.124,3.528,3.528,0,0,1-1.186-.182,2.2,2.2,0,0,1-.887-.589l-5.826-6.241a.357.357,0,0,0-.251-.131.268.268,0,0,0-.188.073.264.264,0,0,0-.079.2V-9.91h-2.8v-7.753a2.778,2.778,0,0,1,.181-1.062,1.818,1.818,0,0,1,.51-.713,2.033,2.033,0,0,1,.785-.4,3.766,3.766,0,0,1,.989-.124,3.281,3.281,0,0,1,1.272.218,3.047,3.047,0,0,1,1.021.756l5.182,5.746a.306.306,0,0,0,.126.095.429.429,0,0,0,.141.022q.22,0,.22-.262v-6.357h2.78Zm7.758,1.906a6.547,6.547,0,0,1-2.481-.429,5.328,5.328,0,0,1-1.79-1.171,4.828,4.828,0,0,1-1.005-1.5,4.571,4.571,0,0,1-.361-1.818,4.507,4.507,0,0,1,.455-2.007,4.982,4.982,0,0,1,1.256-1.615,5.158,5.158,0,0,1,1.672-.953,6.75,6.75,0,0,1,2.253-.342h5.732v2.6h-5.732a3.476,3.476,0,0,0-1.193.175,2.723,2.723,0,0,0-.817.465,2.4,2.4,0,0,0-.573.756,2.1,2.1,0,0,0-.212.931,2.124,2.124,0,0,0,.173.851,2.182,2.182,0,0,0,.487.706,2.73,2.73,0,0,0,.864.575,3.187,3.187,0,0,0,1.272.225h2.717a.18.18,0,0,0,.2-.2v-2.633h2.827v4.757q0,.626-.675.626Zm11.715,0a6.959,6.959,0,0,1-1.712-.182,2.813,2.813,0,0,1-1.154-.567,2.217,2.217,0,0,1-.652-.975,4.352,4.352,0,0,1-.2-1.418v-6.692h2.858v6.4q0,.916,1.021.916H118.9q1.052,0,1.052-.916v-6.4h2.858v6.692a3.008,3.008,0,0,1-.864,2.393,4.347,4.347,0,0,1-2.858.749Zm23.948-1.906a2.494,2.494,0,0,1-.165.953,1.823,1.823,0,0,1-.44.655,1.767,1.767,0,0,1-.636.378,2.311,2.311,0,0,1-.754.124,3.528,3.528,0,0,1-1.186-.182,2.2,2.2,0,0,1-.887-.589l-5.826-6.241a.357.357,0,0,0-.251-.131.268.268,0,0,0-.188.073.264.264,0,0,0-.079.2V-9.91h-2.8v-7.753a2.778,2.778,0,0,1,.181-1.062,1.818,1.818,0,0,1,.51-.713,2.033,2.033,0,0,1,.785-.4,3.766,3.766,0,0,1,.989-.124,3.281,3.281,0,0,1,1.272.218,3.047,3.047,0,0,1,1.021.756l5.182,5.746a.306.306,0,0,0,.126.095.429.429,0,0,0,.141.022q.22,0,.22-.262v-6.357h2.78Zm7.758,1.906a6.547,6.547,0,0,1-2.481-.429,5.328,5.328,0,0,1-1.79-1.171,4.828,4.828,0,0,1-1.005-1.5,4.571,4.571,0,0,1-.361-1.818,4.507,4.507,0,0,1,.455-2.007,4.982,4.982,0,0,1,1.256-1.615,5.158,5.158,0,0,1,1.672-.953,6.75,6.75,0,0,1,2.253-.342h5.732v2.6h-5.732a3.476,3.476,0,0,0-1.193.175,2.723,2.723,0,0,0-.817.465,2.4,2.4,0,0,0-.573.756,2.1,2.1,0,0,0-.212.931,2.124,2.124,0,0,0,.173.851,2.182,2.182,0,0,0,.487.706,2.73,2.73,0,0,0,.864.575,3.187,3.187,0,0,0,1.272.225h2.717a.18.18,0,0,0,.2-.2v-2.633h2.827v4.757q0,.626-.675.626Zm22.9-9.834a5.464,5.464,0,0,1,1.892.284,3.866,3.866,0,0,1,1.3.778,3.736,3.736,0,0,1,.864,1.193,3.378,3.378,0,0,1,.314,1.426,3.335,3.335,0,0,1-.243,1.258,3.757,3.757,0,0,1-.683,1.1,3.883,3.883,0,0,1-1.382.967,5.233,5.233,0,0,1-2.057.356H164.05V-9.91h-2.842v-9.223q0-.611.691-.611ZM169-14.8a1.97,1.97,0,0,0,.762-.124,1.152,1.152,0,0,0,.463-.342,1.068,1.068,0,0,0,.251-.7,1.124,1.124,0,0,0-.267-.742,1.158,1.158,0,0,0-.463-.32,2.029,2.029,0,0,0-.746-.116h-4.742a.18.18,0,0,0-.2.2V-14.8Zm18.295-4.946V-9.91h-2.858v-3.8H178.1v3.8h-2.858v-9.834H178.1v3.564h6.329v-3.564Zm15.845,9.4a1.908,1.908,0,0,1,.1.218,2.193,2.193,0,0,1,.071.218h-3.2q-.031-.1-.063-.182t-.063-.153l-.565-1.193h-6.281l-.55,1.178-.063.175a1.08,1.08,0,0,0-.047.175h-3.282a2.193,2.193,0,0,1,.071-.218,1.91,1.91,0,0,1,.1-.218l3.8-7.8a3.232,3.232,0,0,1,1.193-1.367,3.566,3.566,0,0,1,1.884-.451,3.542,3.542,0,0,1,1.861.451,3.212,3.212,0,0,1,1.2,1.367ZM198.378-13.6l-1.633-3.52a.526.526,0,0,0-.2-.233.554.554,0,0,0-.283-.073.57.57,0,0,0-.267.065.476.476,0,0,0-.2.24L194.17-13.6Zm1.1-10.1L197-20.383h-2.371l1.869-3.317Zm15.076,3.957v2.6H209.9v7.23h-2.858v-7.23h-4.664v-2.6Zm20.713,0v2.6h-4.648v7.23H227.76v-7.23H223.1v-2.6Zm4.742,9.834h-2.842v-9.223q0-.611.707-.611h7.538a4.484,4.484,0,0,1,1.633.255,3.291,3.291,0,0,1,1.084.676,2.84,2.84,0,0,1,.62.88,2.524,2.524,0,0,1,.228,1.055,2.918,2.918,0,0,1-.22,1.127,2.038,2.038,0,0,1-.785.909,1.861,1.861,0,0,1,.777.742,2.777,2.777,0,0,1,.243,1.295v1.964q0,.32.008.524a3.578,3.578,0,0,0,.039.407h-2.874a4.488,4.488,0,0,1-.047-.655v-1.964a.789.789,0,0,0-.267-.669,1.506,1.506,0,0,0-.9-.2h-4.947Zm5.025-5.731a1.165,1.165,0,0,0,.487-.087.918.918,0,0,0,.314-.233.756.756,0,0,0,.2-.509.721.721,0,0,0-.236-.553,1.021,1.021,0,0,0-.769-.262h-4.79q-.236,0-.236.218v1.426Zm9.014-4.1V-9.91H251.19v-9.834Zm13.521,0v2.6H259.5a.22.22,0,0,0-.251.247v1.12h8.276v1.891h-8.276v1.193q0,.262.251.262h8.072V-9.91H257.9q-1.492,0-1.492-1.367v-7.143q0-1.324,1.508-1.324ZM263.36-23.7l2.732,3.317h-2.387L262.2-22.3l-1.508,1.92h-2.4l2.748-3.317Zm19.5,11.885a2.494,2.494,0,0,1-.165.953,1.823,1.823,0,0,1-.44.655,1.767,1.767,0,0,1-.636.378,2.311,2.311,0,0,1-.754.124,3.528,3.528,0,0,1-1.186-.182,2.2,2.2,0,0,1-.887-.589l-5.826-6.241a.357.357,0,0,0-.251-.131.267.267,0,0,0-.188.073.264.264,0,0,0-.079.2V-9.91h-2.8v-7.753a2.778,2.778,0,0,1,.181-1.062,1.818,1.818,0,0,1,.51-.713,2.034,2.034,0,0,1,.785-.4,3.766,3.766,0,0,1,.989-.124,3.281,3.281,0,0,1,1.272.218,3.047,3.047,0,0,1,1.021.756l5.182,5.746a.306.306,0,0,0,.126.095.429.429,0,0,0,.141.022q.22,0,.22-.262v-6.357h2.78Z" transform="translate(-1.25 23.7)" fill="#de4943"/>
</svg>
