<svg id="conversation" xmlns="http://www.w3.org/2000/svg" width="110" height="110" viewBox="0 0 110 110">
  <g id="Group_4017" data-name="Group 4017" transform="translate(0 37.383)">
    <g id="Group_4016" data-name="Group 4016">
      <path id="Path_12195" data-name="Path 12195" d="M74.336,205.152a2.149,2.149,0,0,0-2.148,2.148v14.824a10.754,10.754,0,0,1-10.742,10.742h-23.2a2.148,2.148,0,0,0-2.148,2.147l0,4.272-5.128-5.128A2.149,2.149,0,0,0,29,232.867H15.039A10.754,10.754,0,0,1,4.3,222.125V189.039A10.754,10.754,0,0,1,15.039,178.3h21.7a2.148,2.148,0,0,0,0-4.3h-21.7A15.056,15.056,0,0,0,0,189.039v33.086a15.056,15.056,0,0,0,15.039,15.039H27.9l8.824,8.824a2.148,2.148,0,0,0,3.668-1.518l.005-7.306h21.05a15.056,15.056,0,0,0,15.039-15.039V207.3A2.149,2.149,0,0,0,74.336,205.152Z" transform="translate(0 -174)" fill="#de4943"/>
    </g>
  </g>
  <g id="Group_4019" data-name="Group 4019" transform="translate(42.109)">
    <g id="Group_4018" data-name="Group 4018">
      <path id="Path_12196" data-name="Path 12196" d="M232.664,0h-5.437a31.227,31.227,0,1,0,0,62.453h5.437a31.286,31.286,0,0,0,7.926-1.016l8.032,8.028a2.148,2.148,0,0,0,3.667-1.52V55.515A31.525,31.525,0,0,0,260.5,45.4a30.89,30.89,0,0,0,3.393-14.169A31.262,31.262,0,0,0,232.664,0Zm16.184,52.752a2.149,2.149,0,0,0-.856,1.716v8.293l-5.257-5.255a2.147,2.147,0,0,0-2.15-.534,26.937,26.937,0,0,1-7.921,1.184h-5.437a26.93,26.93,0,1,1,0-53.86h5.437a26.93,26.93,0,0,1,16.184,48.455Z" transform="translate(-196)" fill="#de4943"/>
    </g>
  </g>
  <g id="Group_4021" data-name="Group 4021" transform="translate(67.56 15.053)">
    <g id="Group_4020" data-name="Group 4020">
      <path id="Path_12197" data-name="Path 12197" d="M332.632,78.519a9.117,9.117,0,0,0-8.434-8.433,9.026,9.026,0,0,0-6.846,2.424,9.128,9.128,0,0,0-2.89,6.65,2.148,2.148,0,0,0,4.3,0,4.8,4.8,0,0,1,5.144-4.787,4.8,4.8,0,0,1,.71,9.47,4.066,4.066,0,0,0-3.2,3.985v5.162a2.148,2.148,0,1,0,4.3,0V88A9.049,9.049,0,0,0,332.632,78.519Z" transform="translate(-314.462 -70.063)" fill="#de4943"/>
    </g>
  </g>
  <g id="Group_4023" data-name="Group 4023" transform="translate(74.508 44.329)">
    <g id="Group_4022" data-name="Group 4022">
      <path id="Path_12198" data-name="Path 12198" d="M350.467,206.96a2.15,2.15,0,1,0,.629,1.519A2.165,2.165,0,0,0,350.467,206.96Z" transform="translate(-346.8 -206.33)" fill="#de4943"/>
    </g>
  </g>
  <g id="Group_4025" data-name="Group 4025" transform="translate(11.602 66.602)">
    <g id="Group_4024" data-name="Group 4024">
      <path id="Path_12199" data-name="Path 12199" d="M101.48,310H56.148a2.148,2.148,0,0,0,0,4.3H101.48a2.148,2.148,0,0,0,0-4.3Z" transform="translate(-54 -310)" fill="#de4943"/>
    </g>
  </g>
  <g id="Group_4027" data-name="Group 4027" transform="translate(56.934 78.633)">
    <g id="Group_4026" data-name="Group 4026">
      <path id="Path_12200" data-name="Path 12200" d="M268.667,366.629a2.147,2.147,0,1,0,.63,1.519A2.164,2.164,0,0,0,268.667,366.629Z" transform="translate(-265 -366)" fill="#de4943"/>
    </g>
  </g>
  <g id="Group_4029" data-name="Group 4029" transform="translate(11.602 78.633)">
    <g id="Group_4028" data-name="Group 4028">
      <path id="Path_12201" data-name="Path 12201" d="M93.03,366H56.148a2.148,2.148,0,0,0,0,4.3H93.03a2.148,2.148,0,0,0,0-4.3Z" transform="translate(-54 -366)" fill="#de4943"/>
    </g>
  </g>
  <g id="Group_4031" data-name="Group 4031" transform="translate(11.602 54.57)">
    <g id="Group_4030" data-name="Group 4030">
      <path id="Path_12202" data-name="Path 12202" d="M87.516,254H56.148a2.148,2.148,0,0,0,0,4.3H87.516a2.148,2.148,0,0,0,0-4.3Z" transform="translate(-54 -254)" fill="#de4943"/>
    </g>
  </g>
</svg>
