<svg xmlns="http://www.w3.org/2000/svg" width="12" height="16.002" viewBox="0 0 12 16.002">
  <path id="Icon_awesome-receipt" data-name="Icon awesome-receipt" d="M11.2.1,10,1.5,8.3.1a.5.5,0,0,0-.6,0L6,1.5,4.3.1a.5.5,0,0,0-.6,0L2,1.5.8.1A.5.5,0,0,0,0,.5v15a.5.5,0,0,0,.8.4L2,14.5l1.7,1.4a.5.5,0,0,0,.6,0L6,14.5l1.7,1.4a.5.5,0,0,0,.6,0L10,14.5l1.2,1.4a.5.5,0,0,0,.8-.4V.5a.5.5,0,0,0-.8-.4ZM10,11.25a.251.251,0,0,1-.25.25H2.25A.251.251,0,0,1,2,11.25v-.5a.251.251,0,0,1,.25-.25h7.5a.251.251,0,0,1,.25.25Zm0-3a.251.251,0,0,1-.25.25H2.25A.251.251,0,0,1,2,8.25v-.5a.251.251,0,0,1,.25-.25h7.5a.251.251,0,0,1,.25.25Zm0-3a.251.251,0,0,1-.25.25H2.25A.251.251,0,0,1,2,5.25v-.5a.251.251,0,0,1,.25-.25h7.5a.251.251,0,0,1,.25.25Z" transform="translate(0 0.001)" fill="#de4943"/>
</svg>
