<svg id="approved" xmlns="http://www.w3.org/2000/svg" width="91.094" height="110" viewBox="0 0 91.094 110">
  <g id="Group_3999" data-name="Group 3999" transform="translate(0 35.879)">
    <g id="Group_3998" data-name="Group 3998">
      <path id="Path_12186" data-name="Path 12186" d="M47.667,167.629a2.147,2.147,0,1,0,.63,1.519A2.163,2.163,0,0,0,47.667,167.629Z" transform="translate(-44 -167)" fill="#de4943"/>
    </g>
  </g>
  <g id="Group_4001" data-name="Group 4001">
    <g id="Group_4000" data-name="Group 4000">
      <path id="Path_12187" data-name="Path 12187" d="M128.648,0H85.178a2.148,2.148,0,0,0,0,4.3h43.47A2.151,2.151,0,0,1,130.8,6.445v97.109a2.151,2.151,0,0,1-2.148,2.148h-78.2a2.151,2.151,0,0,1-2.148-2.148V46.048a2.148,2.148,0,0,0-4.3,0v57.507A6.453,6.453,0,0,0,50.445,110h78.2a6.453,6.453,0,0,0,6.445-6.445V6.445A6.453,6.453,0,0,0,128.648,0Z" transform="translate(-44)" fill="#de4943"/>
    </g>
  </g>
  <g id="Group_4003" data-name="Group 4003" transform="translate(17.337 8.594)">
    <g id="Group_4002" data-name="Group 4002">
      <path id="Path_12188" data-name="Path 12188" d="M152.906,40a28.919,28.919,0,0,0-4.366.332,2.148,2.148,0,0,0,.651,4.247,24.575,24.575,0,0,1,3.715-.282,24.264,24.264,0,0,1,18.568,39.9,21.526,21.526,0,0,0-11.216-9.386,10.5,10.5,0,0,0,3.175-7.524V65.191a10.527,10.527,0,1,0-21.055,0v2.095a10.494,10.494,0,0,0,3.175,7.524,21.53,21.53,0,0,0-11.239,9.424,24.2,24.2,0,0,1-5.351-11.612,2.148,2.148,0,0,0-4.238.711A28.576,28.576,0,1,0,152.906,40Zm-6.23,25.191a6.23,6.23,0,1,1,12.461,0v2.095a6.23,6.23,0,0,1-12.461,0Zm6.23,27.661a24.248,24.248,0,0,1-15.4-5.475,17.185,17.185,0,0,1,30.788-.037A24.165,24.165,0,0,1,152.906,92.852Z" transform="translate(-124.696 -40)" fill="#de4943"/>
    </g>
  </g>
  <g id="Group_4005" data-name="Group 4005" transform="translate(32.733 85.508)">
    <g id="Group_4004" data-name="Group 4004">
      <path id="Path_12189" data-name="Path 12189" d="M229.013,398H198.505a2.148,2.148,0,0,0,0,4.3h30.508a2.148,2.148,0,0,0,0-4.3Z" transform="translate(-196.357 -398.002)" fill="#de4943"/>
    </g>
  </g>
  <g id="Group_4007" data-name="Group 4007" transform="translate(23.555 73.477)">
    <g id="Group_4006" data-name="Group 4006">
      <path id="Path_12190" data-name="Path 12190" d="M157.307,342.629a2.147,2.147,0,1,0,.629,1.519A2.164,2.164,0,0,0,157.307,342.629Z" transform="translate(-153.64 -342)" fill="#de4943"/>
    </g>
  </g>
  <g id="Group_4009" data-name="Group 4009" transform="translate(23.555 85.508)">
    <g id="Group_4008" data-name="Group 4008">
      <path id="Path_12191" data-name="Path 12191" d="M157.307,398.629a2.147,2.147,0,1,0,.629,1.519A2.16,2.16,0,0,0,157.307,398.629Z" transform="translate(-153.64 -398)" fill="#de4943"/>
    </g>
  </g>
  <g id="Group_4011" data-name="Group 4011" transform="translate(32.733 73.477)">
    <g id="Group_4010" data-name="Group 4010">
      <path id="Path_12192" data-name="Path 12192" d="M229.013,342H198.505a2.148,2.148,0,0,0,0,4.3h30.508a2.148,2.148,0,0,0,0-4.3Z" transform="translate(-196.357 -342.002)" fill="#de4943"/>
    </g>
  </g>
  <g id="Group_4013" data-name="Group 4013" transform="translate(9.177 11.752)">
    <g id="Group_4012" data-name="Group 4012">
      <path id="Path_12193" data-name="Path 12193" d="M102.81,55.33a2.149,2.149,0,0,0-3.039,0l-7,7-2.391-2.391a2.149,2.149,0,0,0-3.039,3.039l3.91,3.91a2.149,2.149,0,0,0,3.039,0l8.516-8.516A2.149,2.149,0,0,0,102.81,55.33Z" transform="translate(-86.716 -54.701)" fill="#de4943"/>
    </g>
  </g>
  <g id="Group_4015" data-name="Group 4015">
    <g id="Group_4014" data-name="Group 4014">
      <path id="Path_12194" data-name="Path 12194" d="M61.617,0A17.617,17.617,0,1,0,79.234,17.617,17.637,17.637,0,0,0,61.617,0Zm0,30.938a13.32,13.32,0,1,1,13.32-13.32A13.335,13.335,0,0,1,61.617,30.938Z" transform="translate(-44)" fill="#de4943"/>
    </g>
  </g>
</svg>
