<svg xmlns="http://www.w3.org/2000/svg" width="96.794" height="60" viewBox="0 0 96.794 60">
  <g id="delivery" transform="translate(0 -88)">
    <g id="Group_4604" data-name="Group 4604" transform="translate(0 88)">
      <g id="Group_4603" data-name="Group 4603">
        <path id="Path_20332" data-name="Path 20332" d="M372.031,313a3.031,3.031,0,1,0,3.031,3.031A3.035,3.035,0,0,0,372.031,313Z" transform="translate(-291.857 -265.962)" fill="#de4943"/>
        <path id="Path_20333" data-name="Path 20333" d="M84.031,313a3.031,3.031,0,1,0,3.031,3.031A3.035,3.035,0,0,0,84.031,313Z" transform="translate(-64.066 -265.962)" fill="#de4943"/>
        <path id="Path_20334" data-name="Path 20334" d="M92.884,115.243,81.35,110.117,72.908,91.826A6.6,6.6,0,0,0,66.929,88H4.913A4.918,4.918,0,0,0,0,92.913v41.812a4.918,4.918,0,0,0,4.913,4.913H10.16a9.93,9.93,0,0,0,19.611,0h40.6a9.93,9.93,0,0,0,19.611,0h1.9a4.918,4.918,0,0,0,4.913-4.913V121.261A6.59,6.59,0,0,0,92.884,115.243ZM73,99.5l4.728,10.244H63.345V99.5ZM19.965,144.864a6.794,6.794,0,1,1,6.794-6.794A6.8,6.8,0,0,1,19.965,144.864Zm60.209,0a6.794,6.794,0,1,1,6.794-6.794A6.8,6.8,0,0,1,80.174,144.864Zm13.484-15.052H91.882a1.568,1.568,0,1,0,0,3.136h1.777v1.777a1.779,1.779,0,0,1-1.777,1.777h-1.9a9.93,9.93,0,0,0-19.611,0H29.77a9.93,9.93,0,0,0-19.611,0H4.913a1.779,1.779,0,0,1-1.777-1.777v-1.777H8.258a1.568,1.568,0,0,0,0-3.136H3.136v-36.9a1.779,1.779,0,0,1,1.777-1.777H66.929a3.46,3.46,0,0,1,3.132,2l1.487,3.223H56.76a3.244,3.244,0,0,0-3.24,3.24v6.69a6.593,6.593,0,0,0,6.585,6.585H79.842l9.737,4.328-.247.15a4.941,4.941,0,0,0-2.363,4.2v3.135a1.568,1.568,0,0,0,1.568,1.568h5.122ZM60.209,99.5v10.244h-.1a3.453,3.453,0,0,1-3.449-3.449V99.6a.1.1,0,0,1,.1-.1Zm33.449,23.624H90.1v-1.567a1.788,1.788,0,0,1,.855-1.519l1.8-1.094a3.449,3.449,0,0,1,.9,2.318Z" transform="translate(0 -88)" fill="#de4943"/>
        <path id="Path_20335" data-name="Path 20335" d="M182.362,288H145.568a1.568,1.568,0,1,0,0,3.136h36.794a1.568,1.568,0,1,0,0-3.136Z" transform="translate(-113.895 -246.188)" fill="#de4943"/>
      </g>
    </g>
  </g>
</svg>
